<?xml version="1.0" standalone="no"?>
<!DOCTYPE svg PUBLIC "-//W3C//DTD SVG 20010904//EN"
 "http://www.w3.org/TR/2001/REC-SVG-20010904/DTD/svg10.dtd">
<svg version="1.0" xmlns="http://www.w3.org/2000/svg"
 width="536.000000pt" height="536.000000pt" viewBox="0 0 536.000000 536.000000"
 preserveAspectRatio="xMidYMid meet">
<metadata>
Created by potrace 1.14, written by Peter Selinger 2001-2017
</metadata>
<g transform="translate(0.000000,536.000000) scale(0.100000,-0.100000)"
fill="#000000" stroke="none">
<path d="M2967 4835 c-21 -15 -47 -74 -97 -218 -40 -114 -103 -294 -183 -517
-44 -123 -135 -371 -162 -440 -7 -19 -59 -156 -115 -305 -56 -148 -107 -283
-115 -300 -7 -16 -29 -73 -50 -125 -70 -182 -107 -275 -120 -305 -7 -16 -23
-55 -35 -85 -12 -30 -26 -64 -31 -75 -4 -11 -38 -94 -75 -185 -36 -91 -72
-178 -79 -195 -8 -16 -68 -160 -134 -318 -67 -158 -130 -307 -140 -330 -11
-23 -56 -125 -99 -227 l-80 -185 -59 -16 c-32 -9 -112 -31 -178 -49 -66 -17
-152 -45 -192 -62 -63 -26 -82 -37 -130 -78 -32 -27 -4 -99 59 -156 73 -66
202 -138 268 -151 60 -11 129 -4 235 23 33 9 68 18 78 19 10 2 32 9 50 14 29
10 174 53 187 56 3 1 32 9 65 19 33 10 67 20 75 21 8 2 47 14 85 25 87 27 259
70 338 84 12 3 22 5 22 6 0 1 9 3 20 4 11 2 63 11 114 20 91 16 112 19 211 31
25 3 54 7 65 9 31 6 197 21 335 31 47 4 101 8 120 10 168 18 686 26 832 13
100 -9 124 8 119 85 -2 27 -73 98 -136 136 -62 38 -197 82 -292 96 -18 3 -48
7 -65 10 -18 2 -44 7 -58 10 -13 2 -58 7 -100 11 -41 3 -95 7 -120 10 -111 11
-487 4 -625 -11 -27 -3 -72 -8 -100 -10 -68 -7 -145 -16 -175 -20 -14 -2 -62
-9 -107 -15 -46 -6 -95 -13 -110 -15 -33 -4 -66 -9 -190 -31 -50 -9 -96 -15
-101 -13 -5 2 18 61 52 130 34 69 88 181 120 250 33 68 91 189 129 269 38 80
86 181 107 225 21 44 67 142 104 218 36 75 66 139 66 141 0 2 27 59 59 127 32
68 91 196 131 284 39 88 88 194 107 235 51 110 161 362 238 545 37 88 73 174
80 190 68 159 171 454 191 550 22 104 20 164 -10 222 -87 172 -329 359 -399
308z"/>
</g>
</svg>
